<?xml version="1.0" standalone="no"?>
<!DOCTYPE svg PUBLIC "-//W3C//DTD SVG 20010904//EN"
 "http://www.w3.org/TR/2001/REC-SVG-20010904/DTD/svg10.dtd">
<svg version="1.0" xmlns="http://www.w3.org/2000/svg"
 width="512.000000pt" height="512.000000pt" viewBox="0 0 512.000000 512.000000"
 preserveAspectRatio="xMidYMid meet">

<g transform="translate(0.000000,512.000000) scale(0.100000,-0.100000)"
fill="#000000" stroke="none">
<path d="M2345 4680 c-472 -53 -876 -237 -1240 -564 l-50 -45 299 -300 299
-299 71 59 c244 206 523 309 836 309 313 0 592 -103 836 -309 l71 -59 299 299
299 300 -50 45 c-331 299 -713 484 -1131 549 -119 19 -428 27 -539 15z"/>
<path d="M2560 2560 l0 -420 605 0 c349 0 605 -4 605 -9 0 -20 -63 -156 -106
-229 -49 -82 -94 -143 -155 -207 l-39 -40 298 -298 299 -298 56 60 c444 480
642 1144 535 1793 l-11 68 -1043 0 -1044 0 0 -420z"/>
</g>
</svg>
